<svg width="189" height="108" viewBox="0 0 189 108" fill="none" xmlns="http://www.w3.org/2000/svg">
<circle cx="54" cy="54" r="54" fill="url(#paint0_radial_1_15)"/>
<ellipse cx="54" cy="54.5" rx="46" ry="46.5" fill="#4E3715"/>
<circle cx="54" cy="54" r="40" fill="url(#paint1_radial_1_15)"/>
<path d="M49.7947 80.9856C49.5415 80.9603 49.3049 80.872 49.1191 80.7336C48.4724 80.016 47.8738 79.2721 47.3259 78.5049C46.635 77.3866 45.8639 76.3004 45.0164 75.2517C44.8193 74.9849 44.6597 74.7017 44.5405 74.4074C44.4528 74.2092 44.2831 74.0402 44.0588 73.9277C43.8346 73.8153 43.5689 73.766 43.3048 73.7878C42.9763 73.7772 42.6477 73.8042 42.3289 73.8678C40.4097 74.379 38.437 74.2081 36.4761 74.1776C36.0492 74.1718 35.6334 74.0693 35.2779 73.8824C34.9224 73.6954 34.6421 73.4318 34.4701 73.1227C33.541 71.7458 32.9688 70.236 32.7872 68.6818C32.5808 66.6676 32.1018 64.6768 31.3583 62.7435C31.0265 62.0099 30.8214 61.2442 30.7486 60.4673C30.6861 60.0048 30.4996 59.5582 30.2016 59.1572C30.082 58.9703 29.8838 58.8221 29.6412 58.7381C29.3986 58.6541 29.1266 58.6394 28.8718 58.6966C28.229 58.7916 27.5749 58.8306 26.9213 58.8128C26.4428 58.8076 25.973 58.7108 25.5521 58.5307C25.1312 58.3505 24.7717 58.0922 24.5045 57.7782C24.2373 57.4641 24.0703 57.1034 24.0179 56.7271C23.9654 56.3508 24.029 55.9701 24.2032 55.6175C24.5394 54.7153 25.145 53.8903 25.9689 53.2122C26.8382 52.5045 27.6145 51.7289 28.2857 50.8973C28.7779 50.3463 29.302 49.8129 29.7871 49.2593C30.1304 48.8796 30.4427 48.4829 30.7218 48.0716C30.9587 47.7037 31.0336 47.2837 30.9346 46.8783C30.5503 44.7137 30.7811 42.5086 31.6103 40.4235C32.6443 37.6155 34.6554 35.094 37.4141 33.1468C38.5739 32.2997 39.8807 31.588 41.2949 31.0332C44.4527 29.7627 47.7974 28.8065 51.2524 28.1864C51.6972 28.1003 52.1515 28.0485 52.6089 28.0315C55.2331 28.0103 57.8586 28.016 60.4821 28C61.9278 28.0057 63.361 28.2113 64.7173 28.6073C67.2108 29.2558 69.6144 30.1036 71.8907 31.1375C74.5238 32.3285 76.73 34.0305 78.301 36.0829C79.0308 37.064 79.927 37.9656 80.7312 38.9116C81.4656 39.7123 82.0098 40.612 82.3371 41.5668C82.6805 42.7245 82.9338 43.9029 83.1329 45.0823C83.1777 45.9626 83.3033 46.8391 83.5088 47.705C83.5869 48.0615 83.5616 48.4274 83.4345 48.7749C82.8942 50.9138 81.9534 52.9769 80.6432 54.8961C79.9251 55.9428 79.4101 57.0752 78.6848 58.1157C77.592 59.8293 76.3452 61.4787 74.9542 63.0512C74.3734 63.6182 74.0633 64.3288 74.0782 65.0584C74.12 66.9804 74.1153 68.9023 74.1186 70.8238C74.1186 72.3305 74.1186 73.8368 74.0951 75.3431C74.0867 75.9963 73.7844 76.2209 72.8927 76.3056C72.6029 76.3335 72.3111 76.2571 72.2536 76.0474C72.2103 75.79 72.0592 75.5515 71.8244 75.37C71.5897 75.1885 71.2848 75.0745 70.9585 75.0462C70.6602 75.0044 70.5427 74.6067 70.7046 74.3919C70.7858 74.25 70.9017 74.1221 71.0454 74.0155C71.7386 73.623 71.5303 73.1227 71.3534 72.6213C71.3455 72.5706 71.3226 72.5221 71.2867 72.4796C71.2507 72.4372 71.2027 72.402 71.1465 72.3769C71.0903 72.3518 71.0274 72.3375 70.9629 72.3351C70.8984 72.3327 70.834 72.3423 70.7751 72.3631C70.5257 72.4256 70.294 72.5366 70.0427 72.5856C69.8555 72.6361 69.6539 72.643 69.4619 72.6055C69.2699 72.568 69.0956 72.4876 68.9597 72.3739C68.8228 72.259 68.7439 72.1083 68.738 71.9504C68.7321 71.7925 68.7996 71.6384 68.9277 71.5173C69.3194 71.0448 69.7313 70.581 70.1595 70.1277C70.3129 69.9645 70.574 69.8633 70.7144 69.696C70.7789 69.5671 70.7789 69.4236 70.7144 69.2948C70.6941 69.2431 70.4761 69.1915 70.3828 69.2157C69.8886 69.3536 69.4114 69.5297 68.9179 69.6655C68.7941 69.6976 68.6619 69.7038 68.5342 69.6833C68.4065 69.6629 68.2877 69.6166 68.1894 69.5489C68.0911 69.4813 68.0167 69.3946 67.9734 69.2973C67.9302 69.2001 67.9196 69.0957 67.9427 68.9942C68.0785 68.4841 68.3617 68.0059 68.7704 67.5969C69.0967 67.301 69.4062 66.9932 69.7221 66.6906C69.3644 66.6963 69.0041 66.7129 68.6503 66.6964C68.5525 66.6927 68.457 66.6715 68.3711 66.6343C68.2852 66.5971 68.2111 66.5449 68.1545 66.4817C68.0979 66.4185 68.0602 66.3459 68.0443 66.2695C68.0284 66.193 68.0347 66.1148 68.0628 66.0405C68.3628 65.1837 68.9555 64.4089 69.7757 63.801C71.2353 62.6797 72.4865 61.4003 73.4919 60.001C74.759 58.3057 75.9179 56.5613 76.964 54.7742C77.4223 54.0275 77.8934 53.2853 78.3773 52.5476C80.5315 49.2567 80.5106 45.8791 79.0673 42.4328C78.4041 40.9093 77.4907 39.4614 76.3505 38.1262C75.9972 37.7548 75.5901 37.4173 75.1376 37.1208C74.5658 36.6974 73.9378 36.3209 73.3836 35.8841C72.3299 35.0251 71.0998 34.3137 69.7456 33.7798C69.5642 33.7203 69.388 33.6513 69.2182 33.5733C66.8577 32.3541 64.1422 31.9167 61.4632 31.4608C58.7552 31.0176 55.9674 30.9711 53.2382 31.3234C52.0723 31.4649 50.8953 31.5439 49.7288 31.6823C48.8887 31.782 48.059 31.9302 47.2248 32.0603C44.3029 32.5168 41.8902 33.7334 39.6727 35.2365C39.4131 35.3945 39.1786 35.5767 38.9743 35.7792C37.5323 37.3852 36.0257 38.9648 35.2077 40.8599C35.1047 41.1056 35.0347 41.3591 34.9989 41.6164C34.803 42.9528 34.2729 44.2556 34.3219 45.6183C33.7781 47.263 33.5301 48.9898 31.9634 50.3282C31.3801 50.8888 30.8353 51.4739 30.3315 52.0808C29.5481 52.9147 28.787 53.7595 27.9612 54.5646C27.537 54.9597 27.1904 55.403 26.9331 55.8798C26.6276 56.4746 26.8391 56.7153 27.7112 56.7282C28.0853 56.7349 28.4606 56.7323 28.8366 56.7282C29.1839 56.7282 29.5318 56.7246 29.881 56.7282C30.2749 56.723 30.6684 56.7482 31.056 56.8036C31.3529 56.8333 31.6327 56.9298 31.8621 57.0817C32.0916 57.2336 32.2611 57.4344 32.3505 57.6602C32.643 58.5045 32.925 59.3545 33.128 60.2158C33.8793 63.4209 32.8871 63.0652 37.4742 62.7461C38.2575 62.6944 39.0408 62.6376 39.8242 62.6386C40.1454 62.6712 40.4557 62.7523 40.7381 62.8777C40.7943 62.9029 40.8424 62.938 40.8787 62.9802C40.9151 63.0225 40.9387 63.0708 40.9477 63.1214C40.9567 63.172 40.9509 63.2235 40.9308 63.272C40.9106 63.3206 40.8766 63.3648 40.8314 63.4013C40.6007 63.5797 40.3364 63.7288 40.0481 63.8434C38.8446 64.2624 37.5523 64.4988 36.2385 64.5405C35.7815 64.5451 35.3193 64.5529 34.8604 64.572C34.7783 64.571 34.697 64.585 34.6228 64.6129C34.5486 64.6408 34.4836 64.6818 34.4327 64.7328C34.3817 64.7837 34.3463 64.8433 34.3291 64.9068C34.312 64.9704 34.3135 65.0362 34.3336 65.0992C34.3898 65.4054 34.4799 65.709 34.5595 66.0121C35.0464 67.412 35.4048 68.8378 35.632 70.2784C35.63 70.7279 35.8339 71.1627 36.2059 71.5024C36.578 71.8421 37.093 72.0636 37.6557 72.126C38.2823 72.2707 38.9428 72.2985 39.5853 72.2071C40.5645 71.9639 41.7042 72.0388 42.5228 71.4155C44.0753 70.9986 45.5739 70.4654 46.9982 69.823C47.4059 69.6581 47.8607 69.5796 48.3182 69.5953C48.4744 69.6169 48.6236 69.6631 48.7568 69.7313C48.8901 69.7994 49.0046 69.888 49.0937 69.9919C49.1798 70.0895 49.0127 70.3838 48.873 70.5398C48.3632 71.0175 47.7267 71.4006 47.0087 71.6618C46.4662 71.9102 46.3787 72.0827 46.5628 72.5603C46.7155 72.9562 46.9028 73.3433 47.1236 73.7186C48.3815 75.9435 49.4637 78.228 50.364 80.559C50.3877 80.6101 50.3949 80.6651 50.3848 80.7189C50.3748 80.7727 50.3479 80.8237 50.3065 80.8672C50.2652 80.9107 50.2107 80.9453 50.1481 80.9679C50.0855 80.9904 50.0168 81.0003 49.9482 80.9964C49.8967 80.9978 49.8451 80.9942 49.7947 80.9856ZM69.9063 66.5941L69.933 66.5812C69.9597 66.5652 69.9663 66.5296 69.9832 66.5017L69.9063 66.5941ZM52.855 58.8056C52.7775 58.4478 52.5815 58.1127 52.287 57.8343C51.7089 57.2748 51.3305 56.6032 51.191 55.8891C50.8926 55.0424 50.7941 54.1594 50.9006 53.2845C50.9212 53.1322 50.8937 52.9783 50.8206 52.8365C50.7474 52.6947 50.6309 52.5695 50.4815 52.4722C49.2803 51.4394 48.0982 50.3979 46.9179 49.3538C46.3813 48.8949 45.9785 48.3485 45.7377 47.753C45.3583 46.696 45.4902 45.5651 46.1079 44.5809C47.243 42.3941 49.3966 40.6357 52.1238 39.6691C54.5042 38.7556 57.1157 38.2814 59.7614 38.2821C60.7339 38.2363 61.7078 38.3488 62.6231 38.6126C63.5348 38.8502 64.3337 39.3011 64.9143 39.9057C65.4949 40.5103 65.8298 41.2401 65.8747 41.9985C66.0421 43.6633 65.6481 45.3335 64.733 46.8385C63.8395 48.4582 62.6894 49.9815 61.3104 51.3718C61.0147 51.6434 60.8001 51.9641 60.6825 52.3102C60.5649 52.6563 60.5472 53.019 60.6309 53.3712C60.6628 53.5261 60.6798 53.6785 60.7151 53.8313C60.8496 54.419 59.8978 54.926 60.5917 55.587C61.1035 56.075 60.6002 56.8191 61.1075 57.3721C61.152 57.4684 61.1668 57.5717 61.1504 57.6734C61.134 57.7751 61.0871 57.8723 61.0134 57.9566C60.1648 58.8097 59.4259 59.764 58.1203 60.2411C57.6038 60.4621 57.0405 60.6067 56.4583 60.6676C56.3571 60.6723 56.256 60.6749 56.1542 60.6749C54.7122 60.6743 53.2584 60.189 52.855 58.8056ZM54.0339 58.4049C53.9743 58.4023 53.9147 58.4104 53.8596 58.4286C53.8067 58.4518 53.7349 58.503 53.7375 58.5381C53.7359 58.6376 53.7636 58.7361 53.8185 58.8257C53.9709 58.9942 54.1654 59.1361 54.39 59.2427C54.6146 59.3492 54.8644 59.4182 55.124 59.4454C56.3982 59.6752 57.5054 59.6674 58.5688 58.5386C58.5783 58.4975 58.5758 58.4552 58.5616 58.4149C58.5473 58.3746 58.5217 58.3374 58.4865 58.3062C58.1073 58.2582 57.7228 58.237 57.5321 58.2226C56.2357 58.2933 55.1345 58.345 54.0339 58.4049ZM53.6422 56.3104C53.5814 56.3263 53.5229 56.3474 53.4679 56.3734C53.3704 56.4398 53.3087 56.5331 53.2955 56.6344C53.2822 56.7356 53.3185 56.837 53.3968 56.9177C53.5509 57.0747 53.755 57.1964 53.9882 57.2704C54.5154 57.3316 55.0475 57.3632 55.5803 57.3649C56.4355 57.2476 57.7019 57.0788 58.967 56.9001C59.2757 56.8557 59.3899 56.5418 59.247 56.2779C59.1771 56.1063 59.0397 55.9569 58.8548 55.8514C58.67 55.746 58.4474 55.6901 58.2195 55.6918C58.1499 55.6918 58.0803 55.6918 58.0107 55.6918C56.5299 55.7656 55.0646 55.9732 53.6435 56.3104H53.6422ZM58.2809 53.5163C56.5188 53.6079 54.7574 53.7124 52.9966 53.8298C52.9031 53.8404 52.8135 53.8666 52.7338 53.9068C52.6541 53.947 52.5862 54.0001 52.5345 54.0627C52.4834 54.1836 52.4696 54.3125 52.4941 54.4386C52.5185 54.5646 52.5806 54.6843 52.6752 54.7876C52.7697 54.8909 52.894 54.9749 53.0378 55.0327C53.1816 55.0904 53.3406 55.1202 53.5019 55.1197C53.731 55.0944 54.1886 55.0639 54.6338 54.9875C56.1665 54.7269 57.6958 54.4541 59.2215 54.169C59.2701 54.1638 59.3165 54.1497 59.3571 54.1281C59.3977 54.1064 59.4315 54.0777 59.4559 54.0441C59.4803 54.0105 59.4946 53.9729 59.4978 53.9342C59.501 53.8955 59.4929 53.8568 59.4741 53.821C59.4239 53.7327 59.3332 53.6103 59.2379 53.5953C58.9679 53.5462 58.6923 53.5187 58.4154 53.5132C58.3719 53.5129 58.3275 53.5139 58.2822 53.5163H58.2809ZM55.8003 40.7989C53.3153 41.3266 51.0436 42.3513 49.204 43.7743C48.4677 44.3685 47.9191 45.0918 47.6027 45.8853C47.4812 46.208 47.4455 46.5472 47.4981 46.8814C47.5507 47.2156 47.6904 47.5375 47.9082 47.8269C48.0405 48.0063 48.196 48.1743 48.3724 48.3283C49.6981 49.6796 51.2159 50.9143 52.3608 52.3782C52.4569 52.4853 52.5956 52.5639 52.7548 52.6013C52.9139 52.6387 53.0843 52.6329 53.2388 52.5848C53.7486 52.4892 54.2611 52.4014 54.767 52.2951C54.9334 52.26 55.1554 52.2099 54.9909 51.9997C53.8994 50.6122 53.5274 49.0156 52.9281 47.4876C52.8877 47.2339 52.9201 46.9762 53.0227 46.7337C53.0502 46.689 53.0897 46.6496 53.1385 46.6183C53.1873 46.587 53.2443 46.5646 53.3053 46.5527C53.3662 46.5408 53.4298 46.5396 53.4914 46.5493C53.553 46.559 53.6112 46.5793 53.6618 46.6087C53.802 46.7168 53.9245 46.8382 54.0267 46.9702C54.1097 47.0806 54.2261 47.173 54.3655 47.239C54.5049 47.305 54.6628 47.3425 54.825 47.3482C55.797 47.4685 56.4864 47.2583 56.739 46.4362C56.7856 46.2841 56.8949 46.1486 57.0497 46.051C57.2539 45.9339 57.493 45.8608 57.7436 45.8388C57.9065 45.8568 58.0566 45.9187 58.1684 46.0141C58.2802 46.1095 58.347 46.2325 58.3573 46.3624C58.3776 46.8635 58.3135 47.3645 58.1667 47.8522C57.8254 48.524 57.6071 49.2311 57.5184 49.9518C57.5106 50.2657 57.4028 50.5729 57.2051 50.8451C57.0074 51.1173 56.726 51.3457 56.3871 51.5092C56.3358 51.5408 56.2932 51.5804 56.2621 51.6256C56.231 51.6709 56.212 51.7207 56.2063 51.772C56.1979 51.8484 56.2794 51.9884 56.3538 52.0039C56.5679 52.0722 56.8032 52.0874 57.0285 52.0474C57.2537 52.0075 57.4583 51.9143 57.615 51.7802C58.0334 51.3821 58.4108 50.954 58.794 50.5347C60.281 49.0135 61.5099 47.3449 62.4495 45.5713C62.9677 44.5589 63.2149 43.4724 63.1754 42.3806C63.1907 42.1332 63.1424 41.8859 63.0334 41.6537C62.9245 41.4215 62.7571 41.2092 62.5415 41.0296C62.3258 40.85 62.0664 40.7068 61.7789 40.6088C61.4913 40.5108 61.1816 40.4599 60.8685 40.4592C60.4428 40.437 60.0157 40.4347 59.5897 40.4525C59.3149 40.436 59.0512 40.4282 58.7966 40.4282C57.7815 40.4328 56.7731 40.5578 55.8049 40.7989H55.8003ZM55.2964 48.8865C55.2859 48.9894 55.3256 49.0916 55.4073 49.172C55.5401 49.2618 55.6861 49.3386 55.8421 49.4008C55.8871 49.3058 55.9329 49.2108 55.9773 49.1152C55.9714 49.012 56.0157 48.8663 55.9485 48.8168C55.8114 48.7303 55.6467 48.6756 55.4726 48.6587C55.4243 48.6587 55.3114 48.8043 55.3009 48.8865H55.2964ZM43.4471 55.1661C43.2159 55.1654 42.9893 55.1143 42.7924 55.0183C42.5956 54.9224 42.436 54.7854 42.3312 54.6223C42.2264 54.4592 42.1805 54.2764 42.1985 54.0941C42.2165 53.9117 42.2978 53.7368 42.4333 53.5886C42.7906 53.1835 43.2486 52.8404 43.7793 52.5801C44.3099 52.3199 44.9022 52.1481 45.5197 52.0751C45.5855 52.0729 45.6514 52.0779 45.7155 52.0901C45.9417 52.1259 46.1429 52.2269 46.2803 52.3735C46.4176 52.52 46.4813 52.7017 46.459 52.8832C46.3451 53.3694 46.081 53.8258 45.6902 54.2117C45.2995 54.5976 44.7942 54.9012 44.2194 55.0954C44.0472 55.1527 43.8608 55.1785 43.6743 55.1708C43.6005 55.1703 43.5241 55.1682 43.4517 55.1661H43.4471ZM66.0986 51.0743C65.9915 50.9551 66.1129 50.5807 66.3042 50.5445C66.799 50.449 67.3023 50.3829 67.5954 50.338C68.3389 50.4067 68.8618 50.4289 69.3683 50.5141C69.6132 50.5771 69.8355 50.6857 70.0166 50.8306C70.0945 50.8955 70.1527 50.9735 70.1868 51.0588C70.2208 51.1442 70.2298 51.2345 70.2131 51.323C70.1963 51.4115 70.1542 51.4958 70.0901 51.5695C70.026 51.6431 69.9414 51.7043 69.8429 51.7482C69.5317 51.8629 69.1904 51.9171 68.8474 51.9062C67.8271 51.9062 66.5444 51.5634 66.1038 51.0743H66.0986ZM40.0788 47.2945C39.9216 47.2567 39.7829 47.1816 39.6815 47.0794C39.5801 46.9771 39.521 46.8526 39.5122 46.7229C39.4889 46.5956 39.5119 46.4657 39.5785 46.3484C39.6451 46.2311 39.7525 46.1312 39.8882 46.0603C40.3869 45.7474 40.9757 45.7655 41.8915 45.7505C42.075 45.7959 42.5685 45.8956 43.0385 46.0417C43.1064 46.0753 43.164 46.1205 43.2069 46.174C43.2498 46.2275 43.2769 46.288 43.2862 46.3509C43.2956 46.4138 43.2869 46.4776 43.2608 46.5375C43.2348 46.5974 43.192 46.6519 43.1357 46.697C42.8554 46.918 42.5223 47.0926 42.1558 47.2107C41.7894 47.3288 41.3969 47.388 41.0012 47.3848C40.6904 47.3826 40.3809 47.3523 40.0788 47.2945ZM69.7881 44.5856C69.6074 44.4527 69.4965 44.271 69.4773 44.0764C69.4649 44.0165 69.7463 43.8667 69.9095 43.8476C70.2336 43.8254 70.5593 43.8218 70.8841 43.8368C70.888 43.8141 70.8913 43.7914 70.8965 43.7692C71.3384 43.8337 71.7829 43.8885 72.221 43.9664C72.4547 44.0077 72.5174 44.3454 72.3307 44.4828C72.2373 44.5515 72.1512 44.648 72.0389 44.678C71.6888 44.7781 71.3203 44.8321 70.9481 44.8376C70.5385 44.8414 70.1358 44.7545 69.7855 44.5866L69.7881 44.5856ZM45.9075 41.9577C45.5023 41.8671 45.1309 41.7002 44.8251 41.4712C44.5192 41.2422 44.2881 40.9581 44.1515 40.643C44.1059 40.5412 44.0936 40.4319 44.1156 40.3252C44.1376 40.2186 44.1933 40.1181 44.2774 40.033C44.3616 39.9479 44.4715 39.881 44.597 39.8384C44.7225 39.7959 44.8596 39.779 44.9955 39.7895C45.1505 39.7922 45.3021 39.826 45.4361 39.8876C45.9233 40.2167 46.3867 40.5674 46.824 40.9379C46.9394 41.0615 46.9993 41.2122 46.994 41.3658C46.9886 41.5195 46.9185 41.6673 46.7946 41.7858C46.7198 41.8519 46.6281 41.9048 46.5256 41.941C46.4231 41.9771 46.3121 41.9957 46.1999 41.9954C46.1007 41.9951 46.0021 41.983 45.9075 41.9593V41.9577ZM65.2108 38.1066C65.1433 38.0557 65.0916 37.9932 65.0594 37.924C65.0273 37.8548 65.0156 37.7807 65.0254 37.7074C65.1341 37.3336 65.3457 36.9835 65.6452 36.6819C65.9447 36.3802 66.3246 36.1347 66.7579 35.9626C66.8573 35.9453 66.9592 35.9385 67.0608 35.9424C67.1652 36.0535 67.3943 36.1944 67.4296 36.3607C67.4479 36.4604 67.4408 36.5621 67.4088 36.6596C67.3767 36.7572 67.3203 36.8486 67.2429 36.9287C66.7599 37.3394 66.2475 37.7279 65.7082 38.0921C65.6258 38.1346 65.5284 38.1554 65.4301 38.1515C65.3531 38.1549 65.2765 38.1396 65.2108 38.1076V38.1066ZM53.2702 36.8156C53.0276 36.6042 52.8719 36.3394 52.8236 36.0565C52.7753 35.7735 52.8368 35.4856 52.9999 35.2309C53.0675 35.1118 53.1777 35.0111 53.3169 34.9412C53.4562 34.8712 53.6183 34.8351 53.7832 34.8374C53.9473 34.8294 54.1108 34.8593 54.2538 34.9235C54.3968 34.9877 54.5132 35.0833 54.5887 35.1988C54.6976 35.3895 54.785 35.5873 54.8499 35.7901C54.7741 36.0906 54.6769 36.3875 54.5587 36.6793C54.5059 36.7879 54.4119 36.8809 54.2897 36.9456C54.1675 37.0103 54.0229 37.0435 53.8759 37.0408C53.7602 37.0406 53.6459 37.0203 53.5412 36.9813C53.4365 36.9423 53.344 36.8861 53.2702 36.8156Z" fill="black"/>
<path d="M106.186 45.3496C106.186 45.0501 106.228 44.7441 106.312 44.4316C106.397 44.1126 106.511 43.849 106.654 43.6406L107.592 43.8164L108.646 34.6758L107.143 34.4609C107.019 34.1354 106.957 33.8034 106.957 33.4648C106.957 33.1198 107.025 32.7682 107.162 32.4102C107.507 32.2474 108.096 32.1172 108.93 32.0195C109.77 31.9154 110.515 31.8633 111.166 31.8633C111.771 31.8633 112.517 31.8763 113.402 31.9023L113.744 32.0586C113.887 32.4622 114.083 33.1556 114.33 34.1387C114.584 35.1152 115.014 36.8405 115.619 39.3145C115.717 39.6986 115.824 40.1348 115.941 40.623C116.254 39.4902 116.638 37.8887 117.094 35.8184L117.338 34.7539H117.387L115.766 34.4805C115.609 34.1159 115.531 33.7253 115.531 33.3086C115.531 33.0352 115.567 32.7389 115.639 32.4199C116.27 32.2181 116.928 32.0749 117.611 31.9902C118.301 31.9056 119.053 31.8633 119.867 31.8633H120.189C120.535 31.8633 121.026 31.8763 121.664 31.9023L122.006 32.0586C122.423 33.569 122.82 35.4017 123.197 37.5566C123.581 39.7051 123.871 41.6777 124.066 43.4746L124.096 43.7188C124.102 43.7643 124.118 43.9206 124.145 44.1875C124.171 44.4479 124.184 44.6986 124.184 44.9395C124.184 45.2324 124.154 45.5221 124.096 45.8086C123.998 46.2383 123.822 46.5931 123.568 46.873C123.314 46.9772 123.048 47.0553 122.768 47.1074C122.494 47.166 122.175 47.1953 121.811 47.1953C121.452 47.1953 121.094 47.153 120.736 47.0684C120.385 46.9902 120.15 46.873 120.033 46.7168L120.385 44.4805L119.799 38.3379L119.848 35.0664H119.545L119.066 38.416C118.428 40.7793 117.846 42.6087 117.318 43.9043C117.501 44.2624 117.657 44.6595 117.787 45.0957C117.924 45.5319 118.008 45.9583 118.041 46.375C117.768 46.6354 117.393 46.8372 116.918 46.9805C116.449 47.1237 115.951 47.1953 115.424 47.1953C114.883 47.1953 114.389 47.1204 113.939 46.9707C113.497 46.821 113.174 46.6126 112.973 46.3457C113.005 45.6882 113.168 45.0534 113.461 44.4414L111.723 38.1621L111 35.2031L110.668 35.252L111.146 38.5625C111.12 39.7148 111.078 40.8867 111.02 42.0781C110.961 43.2695 110.896 44.2135 110.824 44.9102H110.834C110.782 45.3203 110.642 45.6849 110.414 46.0039C110.193 46.3164 109.91 46.5605 109.564 46.7363C109.226 46.9121 108.858 47 108.461 47C107.419 47 106.667 46.5508 106.205 45.6523C106.192 45.5221 106.186 45.4212 106.186 45.3496ZM125.463 41.3262C125.463 40.1999 125.652 39.194 126.029 38.3086C126.407 37.4232 126.99 36.7233 127.777 36.209C128.572 35.6882 129.561 35.4277 130.746 35.4277C131.365 35.4277 131.983 35.5026 132.602 35.6523C133.22 35.7956 133.744 36.0365 134.174 36.375C134.571 36.694 134.857 37.1172 135.033 37.6445C135.215 38.1654 135.307 38.7448 135.307 39.3828C135.307 39.806 135.271 40.2389 135.199 40.6816C135.121 40.8118 134.968 40.9844 134.74 41.1992C134.512 41.4076 134.245 41.6126 133.939 41.8145C133.633 42.0163 133.337 42.1725 133.051 42.2832C132.777 42.3027 132.494 42.3125 132.201 42.3125C131.687 42.3125 131.166 42.2897 130.639 42.2441C130.111 42.1986 129.649 42.1465 129.252 42.0879C129.304 42.6413 129.473 43.123 129.76 43.5332C130.046 43.9434 130.502 44.1484 131.127 44.1484C131.186 44.1484 131.28 44.1419 131.41 44.1289C131.807 44.0898 132.27 43.9857 132.797 43.8164C133.331 43.6406 133.861 43.4388 134.389 43.2109C134.636 43.4583 134.818 43.7057 134.936 43.9531C135.053 44.2005 135.134 44.5553 135.18 45.0176C134.978 45.252 134.649 45.5384 134.193 45.877C133.744 46.2155 133.194 46.5215 132.543 46.7949C131.892 47.0618 131.212 47.1953 130.502 47.1953C129.434 47.1953 128.52 46.9382 127.758 46.4238C127.003 45.903 126.43 45.1999 126.039 44.3145C125.655 43.4225 125.463 42.4264 125.463 41.3262ZM131.752 39.0801C131.661 38.9824 131.508 38.9076 131.293 38.8555C131.078 38.7969 130.854 38.7676 130.619 38.7676C130.43 38.7676 130.238 38.7839 130.043 38.8164C129.854 38.849 129.74 38.8848 129.701 38.9238C129.48 39.36 129.34 39.8548 129.281 40.4082L131.889 40.1543L131.752 39.0801ZM136.342 34.2266C136.244 33.8294 136.179 33.5007 136.146 33.2402C136.114 32.9733 136.101 32.6673 136.107 32.3223C136.244 32.1465 136.456 31.9707 136.742 31.7949C137.035 31.6126 137.374 31.4596 137.758 31.3359C138.148 31.2122 138.552 31.1504 138.969 31.1504C139.783 31.1504 140.408 31.3555 140.844 31.7656C141.28 32.1758 141.498 32.7812 141.498 33.582C141.498 34.1549 141.449 35.0762 141.352 36.3457C141.254 37.6152 141.114 38.9661 140.932 40.3984C140.749 41.8242 140.541 43.071 140.307 44.1387L140.326 44.1582L141.771 43.5527C142.279 43.9889 142.576 44.5684 142.66 45.291C142.66 45.3366 142.514 45.5254 142.221 45.8574C141.928 46.1829 141.54 46.4889 141.059 46.7754C140.583 47.0553 140.036 47.1953 139.418 47.1953C138.773 47.1953 138.249 47.0163 137.846 46.6582C137.449 46.3001 137.26 45.6882 137.279 44.8223L137.299 43.0645C137.305 41.3978 137.322 39.8971 137.348 38.5625C137.38 37.2279 137.445 35.8509 137.543 34.4316L136.342 34.2266ZM144.447 44.3828C144.447 44.1029 144.454 43.416 144.467 42.3223C144.486 40.1738 144.496 38.9987 144.496 38.7969L143.598 38.6504C143.474 38.2793 143.386 37.931 143.334 37.6055C143.282 37.2799 143.256 36.9512 143.256 36.6191C143.256 36.4824 143.259 36.3783 143.266 36.3066C143.376 36.209 143.549 36.0918 143.783 35.9551C144.018 35.8184 144.294 35.6979 144.613 35.5938C144.932 35.4831 145.258 35.4277 145.59 35.4277C146.365 35.4277 146.924 35.6003 147.27 35.9453C147.621 36.2904 147.797 36.7949 147.797 37.459C147.797 37.8626 147.745 38.3802 147.641 39.0117C147.543 39.6367 147.442 40.0827 147.338 40.3496L147.689 40.4082L148.275 38.2012C148.536 37.2051 148.861 36.4954 149.252 36.0723C149.643 35.6426 150.082 35.4277 150.57 35.4277C150.889 35.4277 151.205 35.4766 151.518 35.5742C151.837 35.6719 152.081 35.7923 152.25 35.9355C152.432 36.3392 152.523 36.8763 152.523 37.5469C152.523 38.0156 152.478 38.4811 152.387 38.9434C152.296 39.3991 152.178 39.7669 152.035 40.0469L149.984 39.7734C149.568 40.2161 149.125 40.8314 148.656 41.6191C148.188 42.4004 147.813 43.1198 147.533 43.7773L147.523 44.2852L149.418 43.8359C149.737 44.3242 149.923 44.9036 149.975 45.5742C149.975 45.6133 149.828 45.7728 149.535 46.0527C149.242 46.3327 148.855 46.5931 148.373 46.834C147.898 47.0684 147.351 47.1855 146.732 47.1855C146.094 47.1855 145.561 47.0163 145.131 46.6777C144.708 46.3327 144.483 45.7533 144.457 44.9395C144.451 44.8418 144.447 44.6562 144.447 44.3828ZM153.236 41.2285C153.236 40.0501 153.425 39.028 153.803 38.1621C154.18 37.2962 154.76 36.6257 155.541 36.1504C156.322 35.6686 157.302 35.4277 158.48 35.4277C159.783 35.4277 160.805 35.6719 161.547 36.1602C162.289 36.6419 162.807 37.3125 163.1 38.1719C163.399 39.0312 163.549 40.0827 163.549 41.3262C163.549 42.4525 163.35 43.4583 162.953 44.3438C162.562 45.2227 161.97 45.9193 161.176 46.4336C160.388 46.9414 159.421 47.1953 158.275 47.1953C156.505 47.1953 155.222 46.6517 154.428 45.5645C153.633 44.4707 153.236 43.0254 153.236 41.2285ZM158.676 44.334C159.008 44.334 159.21 44.3079 159.281 44.2559C159.431 43.9954 159.545 43.6276 159.623 43.1523C159.701 42.6771 159.74 42.1628 159.74 41.6094C159.74 41.1016 159.708 40.6263 159.643 40.1836C159.577 39.7344 159.486 39.3828 159.369 39.1289C159.298 39.0443 159.154 38.9824 158.939 38.9434C158.725 38.8978 158.49 38.875 158.236 38.875C157.904 38.875 157.676 38.9108 157.553 38.9824C157.227 39.5423 157.064 40.3203 157.064 41.3164C157.064 41.7852 157.1 42.2637 157.172 42.752C157.243 43.2402 157.335 43.6829 157.445 44.0801C157.523 44.1647 157.683 44.2298 157.924 44.2754C158.165 44.3145 158.415 44.334 158.676 44.334ZM164.438 43.4258C164.75 43.0417 165.059 42.765 165.365 42.5957C165.671 42.4264 166.062 42.319 166.537 42.2734C166.622 42.3451 166.745 42.498 166.908 42.7324C167.071 42.9603 167.165 43.0938 167.191 43.1328L167.396 43.4355L168.217 41.4043L166.908 39.4316L165.736 40.0664L164.516 38.7383C164.626 38.2695 164.822 37.7845 165.102 37.2832C165.382 36.7754 165.753 36.3424 166.215 35.9844C166.677 35.6263 167.211 35.4473 167.816 35.4473C169.184 35.4473 169.971 36.8014 170.18 39.5098H170.336C170.505 38.5007 170.655 37.7389 170.785 37.2246C170.915 36.7103 171.085 36.3294 171.293 36.082C171.651 35.6523 172.097 35.4375 172.631 35.4375C173.002 35.4375 173.36 35.5514 173.705 35.7793C174.05 36.0072 174.343 36.3392 174.584 36.7754C174.805 37.1921 174.981 37.599 175.111 37.9961C175.248 38.3867 175.32 38.7936 175.326 39.2168C175.046 39.5553 174.724 39.8255 174.359 40.0273C174.001 40.2227 173.617 40.3464 173.207 40.3984C173.109 40.3073 172.956 40.125 172.748 39.8516C172.54 39.5781 172.393 39.3535 172.309 39.1777L171.176 41.3652L172.709 43.377L173.949 42.4492L175.268 43.5039C175.215 44.0833 175.062 44.6562 174.809 45.2227C174.555 45.7891 174.203 46.2611 173.754 46.6387C173.311 47.0098 172.79 47.1953 172.191 47.1953C171.599 47.1953 171.117 46.9967 170.746 46.5996C170.382 46.2025 170.108 45.7467 169.926 45.2324C169.743 44.7181 169.564 44.0801 169.389 43.3184H169.174C169.057 43.9889 168.923 44.5879 168.773 45.1152C168.63 45.6361 168.393 46.1146 168.061 46.5508C167.729 46.9805 167.292 47.1953 166.752 47.1953C166.303 47.1953 165.902 46.9837 165.551 46.5605C165.206 46.1309 164.936 45.6165 164.74 45.0176C164.545 44.4186 164.444 43.888 164.438 43.4258ZM179.252 40.5645C179.636 40.5645 180.059 40.6035 180.521 40.6816C180.99 40.7598 181.42 40.8542 181.811 40.9648V40.6621C181.811 40.4603 181.804 40.2357 181.791 39.9883C181.785 39.7409 181.771 39.5781 181.752 39.5C181.693 39.3893 181.524 39.2754 181.244 39.1582C180.971 39.041 180.521 38.9824 179.896 38.9824C179.512 38.9824 179.115 39.0312 178.705 39.1289C178.301 39.2201 177.852 39.3438 177.357 39.5C177.09 39.0573 176.876 38.6374 176.713 38.2402C176.557 37.8366 176.479 37.4329 176.479 37.0293C176.479 36.9056 176.488 36.7819 176.508 36.6582C177.562 35.8379 178.926 35.4277 180.6 35.4277C181.524 35.4277 182.344 35.5319 183.061 35.7402C183.777 35.9486 184.366 36.3522 184.828 36.9512C185.29 37.5501 185.521 38.3997 185.521 39.5C185.521 40.5742 185.395 41.6159 185.141 42.625C184.893 43.6276 184.766 44.1387 184.76 44.1582L186.176 43.5527C186.365 43.7546 186.531 44.002 186.674 44.2949C186.824 44.5814 186.918 44.9134 186.957 45.291C186.866 45.4863 186.667 45.737 186.361 46.043C186.055 46.3424 185.681 46.6094 185.238 46.8438C184.796 47.0781 184.333 47.1953 183.852 47.1953C183.311 47.1953 182.901 47.0358 182.621 46.7168C182.348 46.3978 182.211 45.9844 182.211 45.4766C182.211 45.1901 182.253 44.9004 182.338 44.6074L182.045 44.5195C181.863 45.5482 181.475 46.2513 180.883 46.6289C180.29 47.0065 179.636 47.1953 178.92 47.1953C178.451 47.1953 177.999 47.0651 177.562 46.8047C177.126 46.5378 176.771 46.1536 176.498 45.6523C176.225 45.1445 176.088 44.5521 176.088 43.875C176.088 42.7943 176.358 41.974 176.898 41.4141C177.439 40.8477 178.223 40.5645 179.252 40.5645ZM180.365 44.2852C180.528 44.2526 180.72 44.1615 180.941 44.0117C181.169 43.862 181.371 43.6829 181.547 43.4746C181.723 43.2663 181.827 43.0677 181.859 42.8789L181.801 42.6445C181.456 42.599 181.088 42.5762 180.697 42.5762C180.365 42.5762 180.137 42.6022 180.014 42.6543C179.805 42.8887 179.701 43.1491 179.701 43.4355C179.701 43.6439 179.753 43.8327 179.857 44.002C179.968 44.1712 180.137 44.2656 180.365 44.2852Z" fill="white"/>
<path d="M109.168 74.192C109.04 74.192 108.976 74.0907 108.976 73.888C108.976 73.6853 109.077 73.584 109.28 73.584L110.192 73.664V68.288L109.68 68.352C109.467 68.352 109.36 68.2507 109.36 68.048C109.36 67.9733 109.472 67.9093 109.696 67.856C109.931 67.792 110.075 67.76 110.128 67.76C110.128 65.8187 109.931 64.5493 109.536 63.952C109.429 63.792 109.301 63.712 109.152 63.712L108.688 63.744C108.464 63.744 108.352 63.6427 108.352 63.44C108.352 63.3013 108.427 63.2 108.576 63.136C109.056 63.104 109.499 63.088 109.904 63.088H111.312C113.936 63.088 115.856 63.5147 117.072 64.368C117.733 64.8267 118.064 65.4827 118.064 66.336C118.064 66.976 117.883 67.5627 117.52 68.096C117.36 68.3307 117.131 68.5547 116.832 68.768C116.533 68.9707 116.192 69.1307 115.808 69.248C115.435 69.3547 115.067 69.4293 114.704 69.472C114.256 69.5253 113.691 69.552 113.008 69.552V73.392L113.2 73.584C113.264 73.5733 113.36 73.568 113.488 73.568H113.904C114.331 73.568 114.603 73.584 114.72 73.616C114.891 73.6693 115.056 73.792 115.216 73.984L115.008 74.192H109.168ZM113.952 68.816L114.592 68.8C115.157 68.768 115.547 68.4747 115.76 67.92C115.888 67.568 115.952 67.152 115.952 66.672C115.952 66.1813 115.931 65.8133 115.888 65.568C115.856 65.3227 115.787 65.0987 115.68 64.896C115.392 64.352 114.779 64 113.84 63.84C113.339 63.7547 112.917 63.712 112.576 63.712C112.576 63.7973 112.576 63.8827 112.576 63.968C112.576 65.504 112.667 66.7893 112.848 67.824C112.912 68.1653 112.971 68.4 113.024 68.528C113.088 68.656 113.179 68.736 113.296 68.768C113.413 68.8 113.632 68.816 113.952 68.816ZM118.662 72.688C118.449 72.3787 118.326 72.0533 118.294 71.712C118.262 71.3707 118.246 70.976 118.246 70.528C118.246 70.08 118.401 69.648 118.71 69.232C119.019 68.8053 119.414 68.4427 119.894 68.144C120.897 67.504 121.974 67.184 123.126 67.184C124.118 67.184 124.955 67.68 125.638 68.672C125.937 69.0987 126.161 69.568 126.31 70.08C126.47 70.5813 126.55 71.0933 126.55 71.616C126.55 72.1387 126.39 72.6453 126.07 73.136C125.643 73.7973 125.035 74.224 124.246 74.416C123.99 74.48 123.659 74.5387 123.254 74.592C122.859 74.656 122.625 74.688 122.55 74.688C121.761 74.688 121.041 74.544 120.39 74.256C119.739 73.968 119.163 73.4453 118.662 72.688ZM121.318 71.072C121.318 71.3173 121.329 71.584 121.35 71.872C121.382 72.16 121.435 72.4373 121.51 72.704C121.691 73.3547 121.953 73.68 122.294 73.68C122.667 73.68 122.955 73.552 123.158 73.296C123.361 73.04 123.51 72.7307 123.606 72.368C123.734 71.8773 123.798 71.1093 123.798 70.064C123.798 69.616 123.745 69.2267 123.638 68.896C123.382 68.3413 123.19 68.032 123.062 67.968C123.051 67.968 123.041 67.968 123.03 67.968C122.379 67.968 121.915 68.3467 121.638 69.104C121.425 69.6587 121.318 70.3147 121.318 71.072ZM131.226 74.128L128.266 74.24C128.02 74.24 127.812 74.208 127.642 74.144C127.482 74.08 127.402 73.9093 127.402 73.632C127.412 73.504 127.556 73.424 127.834 73.392C128.143 73.36 128.33 73.312 128.394 73.248C128.628 72.992 128.746 72.288 128.746 71.136C128.746 70.336 128.724 69.744 128.682 69.36C128.639 68.976 128.612 68.768 128.602 68.736C128.559 68.5653 128.463 68.464 128.314 68.432C128.175 68.3893 128.026 68.3573 127.866 68.336C127.706 68.3147 127.562 68.2773 127.434 68.224C127.316 68.16 127.258 68.0533 127.258 67.904C127.258 67.744 127.295 67.6533 127.37 67.632C127.583 67.6213 127.94 67.5787 128.442 67.504L129.626 67.344C129.903 67.3227 130.159 67.2907 130.394 67.248C130.884 67.1627 131.156 67.12 131.21 67.12C131.455 67.12 131.578 67.2853 131.578 67.616C131.578 68.096 131.519 68.5013 131.402 68.832C131.54 68.7147 131.684 68.544 131.834 68.32C131.983 68.096 132.143 67.872 132.314 67.648C132.74 67.0933 133.103 66.816 133.402 66.816C133.7 66.816 133.962 66.88 134.186 67.008C134.41 67.136 134.602 67.3013 134.762 67.504C135.103 67.9413 135.274 68.416 135.274 68.928C135.263 69.6427 135.002 70.1493 134.49 70.448C134.298 70.5547 134.079 70.608 133.834 70.608C133.599 70.608 133.418 70.5333 133.29 70.384C133.162 70.2347 133.055 70.0533 132.97 69.84C132.895 69.6267 132.826 69.4027 132.762 69.168C132.698 68.9227 132.628 68.704 132.554 68.512C131.69 69.3227 131.215 70.224 131.13 71.216C131.108 71.504 131.092 71.792 131.082 72.08L131.098 73.12C131.098 73.2587 131.14 73.3493 131.226 73.392C131.311 73.4347 131.407 73.472 131.514 73.504C131.62 73.5253 131.716 73.5573 131.802 73.6C131.887 73.632 131.93 73.712 131.93 73.84C131.93 73.968 131.866 74.0693 131.738 74.144L131.226 74.128ZM137.885 66.544L137.789 65.632H137.773C137.719 65.632 137.522 65.664 137.181 65.728C137.063 65.728 136.951 65.6853 136.845 65.6C136.738 65.5147 136.685 65.408 136.685 65.28C136.685 65.1413 136.733 65.0347 136.829 64.96C136.935 64.8747 137.069 64.8053 137.229 64.752C137.41 64.688 137.799 64.6133 138.397 64.528L138.685 64.544C138.855 64.5227 139.026 64.464 139.197 64.368L139.677 64.112C140.018 63.92 140.301 63.824 140.525 63.824C140.759 63.824 140.893 63.888 140.925 64.016C140.967 64.1333 140.989 64.2773 140.989 64.448L140.957 64.624C140.839 65.328 140.781 65.7973 140.781 66.032C140.781 66.2667 140.781 66.448 140.781 66.576L140.813 66.96C140.813 67.088 140.813 67.2053 140.813 67.312C140.823 67.4187 140.829 67.4933 140.829 67.536C141.074 67.536 141.314 67.5147 141.549 67.472C141.783 67.4293 142.029 67.408 142.285 67.408C142.551 67.408 142.685 67.5147 142.685 67.728C142.685 67.8667 142.653 67.9733 142.589 68.048C142.29 68.048 141.927 68.0747 141.501 68.128C141.074 68.1813 140.839 68.2133 140.797 68.224C140.711 68.2773 140.626 68.5653 140.541 69.088C140.455 69.6107 140.407 69.9573 140.397 70.128C140.397 70.288 140.386 70.448 140.365 70.608C140.343 70.768 140.317 70.9333 140.285 71.104C140.21 71.4987 140.173 71.9253 140.173 72.384C140.173 72.5973 140.253 72.7947 140.413 72.976C140.573 73.1573 140.765 73.248 140.989 73.248L141.597 73.216C141.746 73.216 141.879 73.2373 141.997 73.28C142.125 73.3227 142.189 73.424 142.189 73.584C142.189 73.5947 142.183 73.6053 142.173 73.616V73.632C141.831 74.1013 140.999 74.336 139.677 74.336C138.813 74.336 138.189 74.032 137.805 73.424C137.517 72.976 137.373 72.3627 137.373 71.584C137.373 71.456 137.447 70.608 137.597 69.04L137.565 68.336H135.597C135.522 68.336 135.469 68.288 135.437 68.192C135.394 68.096 135.373 68.0213 135.373 67.968C135.373 67.808 135.447 67.696 135.597 67.632C136.951 67.5467 137.682 67.4773 137.789 67.424C137.853 67.04 137.885 66.7467 137.885 66.544ZM149.117 73.696C149.117 73.952 148.903 74.08 148.477 74.08C148.455 74.08 148.327 74.0747 148.093 74.064C147.858 74.0533 147.533 74.0427 147.117 74.032C146.701 74.032 146.199 74.0267 145.613 74.016C145.026 74.0053 144.381 74 143.677 74C143.591 74 143.511 73.9733 143.437 73.92C143.362 73.8667 143.325 73.7653 143.325 73.616C143.325 73.4667 143.373 73.3547 143.469 73.28C143.575 73.2053 143.698 73.1573 143.837 73.136C143.986 73.1147 144.135 73.0987 144.285 73.088C144.445 73.0773 144.583 73.0293 144.701 72.944L144.717 72.608C144.717 72.2133 144.669 71.7653 144.573 71.264C144.391 70.3253 144.301 69.6213 144.301 69.152C144.087 69.1307 143.879 69.104 143.677 69.072C143.485 69.04 143.389 68.9493 143.389 68.8C143.389 68.5867 143.57 68.4587 143.933 68.416C144.018 68.4053 144.103 68.384 144.189 68.352C144.189 66.944 144.231 66.0107 144.317 65.552C144.413 65.0933 144.509 64.7573 144.605 64.544C144.711 64.3307 144.839 64.1333 144.989 63.952C145.405 63.536 145.762 63.2693 146.061 63.152C146.466 63.0027 146.887 62.928 147.325 62.928C147.762 62.928 148.146 63.0027 148.477 63.152C148.818 63.3013 149.143 63.4347 149.453 63.552C149.602 63.552 149.719 63.5147 149.805 63.44C149.965 63.3013 150.103 63.232 150.221 63.232C150.349 63.232 150.493 63.264 150.653 63.328L150.861 65.84C150.861 65.9893 150.845 66.1333 150.812 66.272C150.781 66.4 150.695 66.464 150.557 66.464C150.333 66.464 149.901 66.1227 149.261 65.44C149.133 65.3013 149.026 65.1413 148.941 64.96C148.866 64.7787 148.786 64.6027 148.701 64.432C148.615 64.2613 148.514 64.1173 148.397 64C148.29 63.8827 148.162 63.824 148.013 63.824C147.863 63.824 147.714 63.8347 147.565 63.856C147.426 63.8667 147.33 63.9413 147.277 64.08C147.234 64.2187 147.197 64.3413 147.165 64.448C147.143 64.544 147.122 64.6453 147.101 64.752C147.09 64.848 147.085 64.96 147.085 65.088V65.568C147.085 67.3493 147.255 68.24 147.597 68.24C147.767 68.24 147.938 68.2293 148.109 68.208C148.407 68.1653 148.578 68.1387 148.621 68.128C148.877 68.128 149.005 68.24 149.005 68.464C149.005 68.72 148.637 68.9013 147.901 69.008C147.751 69.0293 147.65 69.04 147.597 69.04C147.874 69.776 148.109 71.1467 148.301 73.152C148.333 73.2373 148.391 73.2853 148.477 73.296C148.562 73.3067 148.653 73.3173 148.749 73.328C148.845 73.3387 148.93 73.3653 149.005 73.408C149.079 73.4507 149.117 73.5467 149.117 73.696ZM150.443 72.688C150.23 72.3787 150.107 72.0533 150.075 71.712C150.043 71.3707 150.027 70.976 150.027 70.528C150.027 70.08 150.182 69.648 150.491 69.232C150.801 68.8053 151.195 68.4427 151.675 68.144C152.678 67.504 153.755 67.184 154.907 67.184C155.899 67.184 156.737 67.68 157.419 68.672C157.718 69.0987 157.942 69.568 158.091 70.08C158.251 70.5813 158.331 71.0933 158.331 71.616C158.331 72.1387 158.171 72.6453 157.851 73.136C157.425 73.7973 156.817 74.224 156.027 74.416C155.771 74.48 155.441 74.5387 155.035 74.592C154.641 74.656 154.406 74.688 154.331 74.688C153.542 74.688 152.822 74.544 152.171 74.256C151.521 73.968 150.945 73.4453 150.443 72.688ZM153.099 71.072C153.099 71.3173 153.11 71.584 153.131 71.872C153.163 72.16 153.217 72.4373 153.291 72.704C153.473 73.3547 153.734 73.68 154.075 73.68C154.449 73.68 154.737 73.552 154.939 73.296C155.142 73.04 155.291 72.7307 155.387 72.368C155.515 71.8773 155.579 71.1093 155.579 70.064C155.579 69.616 155.526 69.2267 155.419 68.896C155.163 68.3413 154.971 68.032 154.843 67.968C154.833 67.968 154.822 67.968 154.811 67.968C154.161 67.968 153.697 68.3467 153.419 69.104C153.206 69.6587 153.099 70.3147 153.099 71.072ZM159.918 74.24L159.678 74.256C159.305 74.256 159.043 74.1707 158.894 74C158.83 73.936 158.798 73.8667 158.798 73.792C158.798 73.696 158.835 73.6107 158.91 73.536C158.974 73.472 159.043 73.44 159.118 73.44H160.414C160.435 73.44 160.457 73.4027 160.478 73.328C160.51 73.2533 160.526 73.2 160.526 73.168C160.526 73.1253 160.521 73.0613 160.51 72.976C160.499 72.8907 160.489 72.7947 160.478 72.688C160.446 72.3893 160.393 71.984 160.318 71.472C160.254 70.96 160.222 70.224 160.222 69.264L160.334 65.136C160.334 64.9547 160.302 64.784 160.238 64.624C160.078 64.656 159.961 64.672 159.886 64.672C159.577 64.672 159.422 64.544 159.422 64.288C159.433 64.1173 159.683 63.936 160.174 63.744L160.654 63.552L161.47 63.184C161.918 62.9813 162.27 62.8587 162.526 62.816C162.665 62.816 162.766 62.8907 162.83 63.04C162.894 63.1893 162.926 63.3227 162.926 63.44C162.926 63.5573 162.91 63.7067 162.878 63.888C162.846 64.0693 162.814 64.2507 162.782 64.432L162.67 64.912C162.638 65.0507 162.622 65.2907 162.622 65.632C162.622 65.9733 162.606 66.4053 162.574 66.928C162.553 67.4507 162.521 67.9573 162.478 68.448C162.371 69.7813 162.318 70.6827 162.318 71.152C162.318 71.8133 162.355 72.3093 162.43 72.64C162.451 72.896 162.499 73.0453 162.574 73.088C162.67 73.152 162.841 73.184 163.086 73.184H163.182C163.363 73.184 163.523 73.1947 163.662 73.216C163.811 73.2373 163.886 73.312 163.886 73.44C163.886 73.7387 163.779 73.904 163.566 73.936C162.425 73.968 161.209 74.0693 159.918 74.24ZM167.314 74.128C166.748 74.128 166.018 74.2027 165.122 74.352C164.855 74.352 164.722 74.2133 164.722 73.936C164.722 73.7333 164.775 73.6053 164.882 73.552C164.999 73.4987 165.132 73.472 165.282 73.472C165.431 73.4613 165.575 73.4507 165.714 73.44C165.863 73.4293 165.964 73.3707 166.018 73.264V73.104L166.034 72.608V72.448C166.034 71.168 165.927 70.064 165.714 69.136C165.586 68.944 165.431 68.832 165.25 68.8C165.068 68.768 164.892 68.752 164.722 68.752C164.562 68.7413 164.418 68.72 164.29 68.688C164.172 68.6453 164.114 68.5493 164.114 68.4C164.114 68.2507 164.188 68.1333 164.338 68.048C164.498 67.9627 164.679 67.888 164.882 67.824C165.095 67.76 165.298 67.7067 165.49 67.664C165.692 67.6107 165.916 67.536 166.162 67.44L167.17 67.072C167.607 66.912 167.975 66.832 168.274 66.832C168.572 66.832 168.738 66.864 168.77 66.928C168.812 66.9813 168.834 67.1147 168.834 67.328C168.834 67.5413 168.802 67.712 168.738 67.84L168.722 70.608C168.722 71.1947 168.738 71.5733 168.77 71.744C168.812 71.968 168.876 72.24 168.962 72.56C169.058 72.88 169.17 73.0987 169.298 73.216C169.426 73.3227 169.559 73.424 169.698 73.52L170.082 73.744C170.188 73.8187 170.242 73.8827 170.242 73.936C170.242 74.1173 170.178 74.2293 170.05 74.272C169.922 74.3253 169.778 74.352 169.618 74.352L169.426 74.336C168.978 74.1973 168.274 74.128 167.314 74.128ZM166.289 66.256C165.575 66.256 165.218 65.84 165.218 65.008C165.218 64.1653 165.687 63.5093 166.626 63.04C167.074 63.04 167.431 63.168 167.698 63.424C167.975 63.6693 168.114 64.0107 168.114 64.448C168.114 64.8853 167.911 65.296 167.506 65.68C167.1 66.064 166.695 66.256 166.289 66.256ZM171.084 72.688C170.871 72.3787 170.748 72.0533 170.716 71.712C170.684 71.3707 170.668 70.976 170.668 70.528C170.668 70.08 170.823 69.648 171.132 69.232C171.441 68.8053 171.836 68.4427 172.316 68.144C173.319 67.504 174.396 67.184 175.548 67.184C176.54 67.184 177.377 67.68 178.06 68.672C178.359 69.0987 178.583 69.568 178.732 70.08C178.892 70.5813 178.972 71.0933 178.972 71.616C178.972 72.1387 178.812 72.6453 178.492 73.136C178.065 73.7973 177.457 74.224 176.668 74.416C176.412 74.48 176.081 74.5387 175.676 74.592C175.281 74.656 175.047 74.688 174.972 74.688C174.183 74.688 173.463 74.544 172.812 74.256C172.161 73.968 171.585 73.4453 171.084 72.688ZM173.74 71.072C173.74 71.3173 173.751 71.584 173.772 71.872C173.804 72.16 173.857 72.4373 173.932 72.704C174.113 73.3547 174.375 73.68 174.716 73.68C175.089 73.68 175.377 73.552 175.58 73.296C175.783 73.04 175.932 72.7307 176.028 72.368C176.156 71.8773 176.22 71.1093 176.22 70.064C176.22 69.616 176.167 69.2267 176.06 68.896C175.804 68.3413 175.612 68.032 175.484 67.968C175.473 67.968 175.463 67.968 175.452 67.968C174.801 67.968 174.337 68.3467 174.06 69.104C173.847 69.6587 173.74 70.3147 173.74 71.072Z" fill="white"/>
<line x1="108" y1="53.5" x2="187" y2="53.5" stroke="white"/>
<defs>
<radialGradient id="paint0_radial_1_15" cx="0" cy="0" r="1" gradientUnits="userSpaceOnUse" gradientTransform="translate(54 54) rotate(90) scale(54)">
<stop stop-color="#ECFF0C"/>
<stop offset="1" stop-color="#FF9900" stop-opacity="0"/>
</radialGradient>
<radialGradient id="paint1_radial_1_15" cx="0" cy="0" r="1" gradientUnits="userSpaceOnUse" gradientTransform="translate(54 54) rotate(90) scale(40)">
<stop stop-color="#ECFF0C"/>
<stop offset="1" stop-color="#FF9900" stop-opacity="0"/>
</radialGradient>
</defs>
</svg>
